<svg width="73" height="59" viewBox="0 0 73 59" fill="none" xmlns="http://www.w3.org/2000/svg">
<rect width="10.2686" height="1.25066" transform="matrix(-0.817563 -0.575839 0.427773 -0.903886 72 48.1765)" fill="#FC9E1C" fill-opacity="0.6"/>
<rect width="4.7065" height="2.52076" transform="matrix(0.99188 -0.12718 0.0858369 0.996309 20 0.598576)" fill="#755FFE" fill-opacity="0.65"/>
<rect width="3.25483" height="1.08518" transform="matrix(-0.200237 -0.979747 0.956722 -0.291003 6 28.6573)" fill="#9DED1A" fill-opacity="0.35"/>
<ellipse cx="62.5" cy="50" rx="0.5" ry="1" fill="#BA3E03" fill-opacity="0.75"/>
<circle cx="0.5" cy="57.5" r="0.5" fill="#480CA7" fill-opacity="0.6"/>
<path d="M33.4648 25.7169L29.7507 24.5872L32.4097 21.2281L33.4648 25.7169Z" fill="#4BC8EF" fill-opacity="0.75"/>
<path d="M49.6092 14.3626L50.981 10.0031L53.3899 13.6321L49.6092 14.3626Z" fill="#4BC8EF" fill-opacity="0.35"/>
<path d="M4.49996 4.70335L6.63519 3.31832L7.77052 5.92319L5.63528 7.30823L4.49996 4.70335Z" fill="#03A3F5" fill-opacity="0.65"/>
<path d="M25.4533 44.3679L27.5287 44.0121L26.7436 46.3827L25.4533 44.3679Z" fill="#755FFE" fill-opacity="0.65"/>
<path d="M41.4361 52.6924L43.8289 51.1403L46.1271 52.8922L46.0325 56.1963L43.6397 57.7484L41.3415 55.9964L41.4361 52.6924Z" fill="#FF21FB" fill-opacity="0.45"/>
<path d="M11 31L12.9021 32.7275L12.1756 35.5225H9.82443L9.09789 32.7275L11 31Z" fill="#480CA7" fill-opacity="0.45"/>
<path d="M61.5272 14.1568L60.5865 14.1028L59.9406 14.9388L59.9849 13.7913L59.2996 13.0033L60.2403 13.0573L60.8862 12.2213L60.8419 13.3688L61.5272 14.1568Z" fill="#03A3F5" fill-opacity="0.35"/>
<path d="M12.5664 10.2L13.2738 9.44165L13.2624 8.29289L13.884 9.15589L14.8256 9.14198L14.1182 9.90031L14.1296 11.0491L13.508 10.1861L12.5664 10.2Z" fill="#F54721" fill-opacity="0.6"/>
<path d="M47.4341 34.6733L47.1417 36.2572L47.9369 37.559L46.6386 37.2023L45.5715 38.1724L45.8639 36.5885L45.0687 35.2867L46.367 35.6434L47.4341 34.6733Z" fill="#BA3E03" fill-opacity="0.75"/>
</svg>
